<mxfile host="app.diagrams.net" modified="2021-11-09T04:55:42.400Z" agent="5.0 (Macintosh; Intel Mac OS X 10_15_7) AppleWebKit/537.36 (KHTML, like Gecko) Chrome/95.0.4638.54 Safari/537.36 Edg/95.0.1020.40" etag="k5p52gABx0xJPTKUP9pe" version="15.7.0" type="github" pages="6">
  <diagram id="lIvmAtnmsLYVc2AEwSKu" name="Page-1">
    <mxGraphModel dx="1538" dy="724" grid="1" gridSize="10" guides="1" tooltips="1" connect="1" arrows="1" fold="1" page="1" pageScale="1" pageWidth="1169" pageHeight="827" math="0" shadow="0">
      <root>
        <mxCell id="0" />
        <mxCell id="1" parent="0" />
        <mxCell id="cGZ3a3O14eYahLOS3wgB-1" value="Kafka cluster" style="rounded=1;whiteSpace=wrap;html=1;fillColor=#fff2cc;strokeColor=#d6b656;" parent="1" vertex="1">
          <mxGeometry x="490" y="40" width="120" height="510" as="geometry" />
        </mxCell>
        <mxCell id="cGZ3a3O14eYahLOS3wgB-11" value="" style="edgeStyle=orthogonalEdgeStyle;rounded=0;orthogonalLoop=1;jettySize=auto;html=1;" parent="1" source="cGZ3a3O14eYahLOS3wgB-2" target="cGZ3a3O14eYahLOS3wgB-10" edge="1">
          <mxGeometry relative="1" as="geometry" />
        </mxCell>
        <mxCell id="cGZ3a3O14eYahLOS3wgB-2" value="CALM Kafka Controller" style="rounded=1;whiteSpace=wrap;html=1;fillColor=#0050ef;strokeColor=#001DBC;fontColor=#ffffff;" parent="1" vertex="1">
          <mxGeometry x="300" y="320" width="120" height="60" as="geometry" />
        </mxCell>
        <mxCell id="cGZ3a3O14eYahLOS3wgB-12" value="" style="edgeStyle=orthogonalEdgeStyle;rounded=0;orthogonalLoop=1;jettySize=auto;html=1;fillColor=#d5e8d4;strokeColor=#82b366;" parent="1" source="cGZ3a3O14eYahLOS3wgB-4" target="cGZ3a3O14eYahLOS3wgB-10" edge="1">
          <mxGeometry relative="1" as="geometry" />
        </mxCell>
        <mxCell id="cGZ3a3O14eYahLOS3wgB-13" value="Listener" style="edgeLabel;html=1;align=center;verticalAlign=middle;resizable=0;points=[];" parent="cGZ3a3O14eYahLOS3wgB-12" vertex="1" connectable="0">
          <mxGeometry x="-0.1429" y="1" relative="1" as="geometry">
            <mxPoint x="-11" y="-1" as="offset" />
          </mxGeometry>
        </mxCell>
        <mxCell id="cGZ3a3O14eYahLOS3wgB-4" value="Subscription Topic" style="shape=process;whiteSpace=wrap;html=1;backgroundOutline=1;rounded=1;fillColor=#f5f5f5;strokeColor=#666666;fontColor=#333333;" parent="1" vertex="1">
          <mxGeometry x="490" y="180" width="120" height="60" as="geometry" />
        </mxCell>
        <mxCell id="cGZ3a3O14eYahLOS3wgB-8" value="Filter Topic" style="shape=process;whiteSpace=wrap;html=1;backgroundOutline=1;rounded=1;fillColor=#f5f5f5;strokeColor=#666666;fontColor=#333333;" parent="1" vertex="1">
          <mxGeometry x="490" y="450" width="120" height="60" as="geometry" />
        </mxCell>
        <mxCell id="cGZ3a3O14eYahLOS3wgB-15" value="" style="edgeStyle=orthogonalEdgeStyle;rounded=0;orthogonalLoop=1;jettySize=auto;html=1;fillColor=#d5e8d4;strokeColor=#82b366;" parent="1" source="cGZ3a3O14eYahLOS3wgB-10" target="cGZ3a3O14eYahLOS3wgB-14" edge="1">
          <mxGeometry relative="1" as="geometry">
            <Array as="points">
              <mxPoint x="360" y="90" />
            </Array>
          </mxGeometry>
        </mxCell>
        <mxCell id="cGZ3a3O14eYahLOS3wgB-10" value="CALM KafkaLib" style="whiteSpace=wrap;html=1;rounded=1;fillColor=#0050ef;strokeColor=#001DBC;fontColor=#ffffff;" parent="1" vertex="1">
          <mxGeometry x="300" y="180" width="120" height="60" as="geometry" />
        </mxCell>
        <mxCell id="cGZ3a3O14eYahLOS3wgB-14" value="Tenant Topic(n)" style="shape=process;whiteSpace=wrap;html=1;backgroundOutline=1;rounded=1;fillColor=#f5f5f5;strokeColor=#666666;fontColor=#333333;" parent="1" vertex="1">
          <mxGeometry x="494" y="60" width="120" height="60" as="geometry" />
        </mxCell>
        <mxCell id="cGZ3a3O14eYahLOS3wgB-18" value="" style="edgeStyle=orthogonalEdgeStyle;rounded=0;orthogonalLoop=1;jettySize=auto;html=1;fillColor=#d5e8d4;strokeColor=#82b366;" parent="1" source="cGZ3a3O14eYahLOS3wgB-16" target="cGZ3a3O14eYahLOS3wgB-2" edge="1">
          <mxGeometry relative="1" as="geometry" />
        </mxCell>
        <mxCell id="cGZ3a3O14eYahLOS3wgB-19" value="Tenant subscription" style="edgeLabel;html=1;align=center;verticalAlign=middle;resizable=0;points=[];" parent="cGZ3a3O14eYahLOS3wgB-18" vertex="1" connectable="0">
          <mxGeometry x="-0.2" relative="1" as="geometry">
            <mxPoint as="offset" />
          </mxGeometry>
        </mxCell>
        <mxCell id="cGZ3a3O14eYahLOS3wgB-16" value="Euporie" style="rounded=1;whiteSpace=wrap;html=1;fillColor=#6d8764;strokeColor=#3A5431;fontColor=#ffffff;" parent="1" vertex="1">
          <mxGeometry x="30" y="320" width="120" height="60" as="geometry" />
        </mxCell>
        <mxCell id="cGZ3a3O14eYahLOS3wgB-17" value="Autonoe" style="rounded=1;whiteSpace=wrap;html=1;fillColor=#6d8764;strokeColor=#3A5431;fontColor=#ffffff;" parent="1" vertex="1">
          <mxGeometry x="30" y="390" width="120" height="60" as="geometry" />
        </mxCell>
        <mxCell id="cGZ3a3O14eYahLOS3wgB-20" value="" style="endArrow=classic;html=1;entryX=0;entryY=0.75;entryDx=0;entryDy=0;exitX=1;exitY=0.5;exitDx=0;exitDy=0;fillColor=#f8cecc;strokeColor=#b85450;" parent="1" source="cGZ3a3O14eYahLOS3wgB-17" target="cGZ3a3O14eYahLOS3wgB-2" edge="1">
          <mxGeometry width="50" height="50" relative="1" as="geometry">
            <mxPoint x="160" y="439" as="sourcePoint" />
            <mxPoint x="210" y="389" as="targetPoint" />
          </mxGeometry>
        </mxCell>
        <mxCell id="cGZ3a3O14eYahLOS3wgB-21" value="Vector deployment" style="edgeLabel;html=1;align=center;verticalAlign=middle;resizable=0;points=[];" parent="cGZ3a3O14eYahLOS3wgB-20" vertex="1" connectable="0">
          <mxGeometry x="0.0765" y="-2" relative="1" as="geometry">
            <mxPoint as="offset" />
          </mxGeometry>
        </mxCell>
        <mxCell id="cGZ3a3O14eYahLOS3wgB-27" value="" style="edgeStyle=orthogonalEdgeStyle;rounded=0;orthogonalLoop=1;jettySize=auto;html=1;" parent="1" source="cGZ3a3O14eYahLOS3wgB-22" target="cGZ3a3O14eYahLOS3wgB-26" edge="1">
          <mxGeometry relative="1" as="geometry" />
        </mxCell>
        <mxCell id="cGZ3a3O14eYahLOS3wgB-34" value="Listens&lt;br&gt;&amp;nbsp;to event" style="edgeLabel;html=1;align=center;verticalAlign=middle;resizable=0;points=[];" parent="cGZ3a3O14eYahLOS3wgB-27" vertex="1" connectable="0">
          <mxGeometry x="0.04" y="1" relative="1" as="geometry">
            <mxPoint as="offset" />
          </mxGeometry>
        </mxCell>
        <mxCell id="cGZ3a3O14eYahLOS3wgB-22" value="CALM KafkaLib" style="whiteSpace=wrap;html=1;rounded=1;fillColor=#0050ef;strokeColor=#001DBC;fontColor=#ffffff;" parent="1" vertex="1">
          <mxGeometry x="670" y="320" width="120" height="60" as="geometry" />
        </mxCell>
        <mxCell id="cGZ3a3O14eYahLOS3wgB-25" value="" style="edgeStyle=orthogonalEdgeStyle;rounded=0;orthogonalLoop=1;jettySize=auto;html=1;" parent="1" source="cGZ3a3O14eYahLOS3wgB-24" target="cGZ3a3O14eYahLOS3wgB-22" edge="1">
          <mxGeometry relative="1" as="geometry" />
        </mxCell>
        <mxCell id="cGZ3a3O14eYahLOS3wgB-35" value="sends to an event/domain" style="edgeLabel;html=1;align=center;verticalAlign=middle;resizable=0;points=[];" parent="cGZ3a3O14eYahLOS3wgB-25" vertex="1" connectable="0">
          <mxGeometry x="-0.24" y="2" relative="1" as="geometry">
            <mxPoint as="offset" />
          </mxGeometry>
        </mxCell>
        <mxCell id="cGZ3a3O14eYahLOS3wgB-24" value="CALM Producer" style="rounded=1;whiteSpace=wrap;html=1;fillColor=#dae8fc;strokeColor=#6c8ebf;" parent="1" vertex="1">
          <mxGeometry x="670" y="220" width="120" height="60" as="geometry" />
        </mxCell>
        <mxCell id="cGZ3a3O14eYahLOS3wgB-26" value="CALM Consumer" style="whiteSpace=wrap;html=1;rounded=1;fillColor=#dae8fc;strokeColor=#6c8ebf;" parent="1" vertex="1">
          <mxGeometry x="670" y="460" width="120" height="60" as="geometry" />
        </mxCell>
        <mxCell id="cGZ3a3O14eYahLOS3wgB-30" value="" style="endArrow=classic;html=1;exitX=0;exitY=0.25;exitDx=0;exitDy=0;entryX=0.987;entryY=0.877;entryDx=0;entryDy=0;entryPerimeter=0;" parent="1" source="cGZ3a3O14eYahLOS3wgB-22" target="cGZ3a3O14eYahLOS3wgB-14" edge="1">
          <mxGeometry width="50" height="50" relative="1" as="geometry">
            <mxPoint x="430" y="380" as="sourcePoint" />
            <mxPoint x="620" y="120" as="targetPoint" />
          </mxGeometry>
        </mxCell>
        <mxCell id="cGZ3a3O14eYahLOS3wgB-37" value="for messages" style="edgeLabel;html=1;align=center;verticalAlign=middle;resizable=0;points=[];" parent="cGZ3a3O14eYahLOS3wgB-30" vertex="1" connectable="0">
          <mxGeometry x="0.2052" y="-3" relative="1" as="geometry">
            <mxPoint x="12" as="offset" />
          </mxGeometry>
        </mxCell>
        <mxCell id="cGZ3a3O14eYahLOS3wgB-31" value="" style="endArrow=classic;html=1;exitX=-0.038;exitY=0.627;exitDx=0;exitDy=0;exitPerimeter=0;entryX=1;entryY=0.25;entryDx=0;entryDy=0;" parent="1" source="cGZ3a3O14eYahLOS3wgB-22" target="cGZ3a3O14eYahLOS3wgB-8" edge="1">
          <mxGeometry width="50" height="50" relative="1" as="geometry">
            <mxPoint x="430" y="380" as="sourcePoint" />
            <mxPoint x="480" y="330" as="targetPoint" />
          </mxGeometry>
        </mxCell>
        <mxCell id="cGZ3a3O14eYahLOS3wgB-36" value="for landscape-partition id" style="edgeLabel;html=1;align=center;verticalAlign=middle;resizable=0;points=[];" parent="cGZ3a3O14eYahLOS3wgB-31" vertex="1" connectable="0">
          <mxGeometry x="-0.1918" relative="1" as="geometry">
            <mxPoint as="offset" />
          </mxGeometry>
        </mxCell>
        <mxCell id="cGZ3a3O14eYahLOS3wgB-32" value="" style="endArrow=classic;html=1;exitX=1;exitY=0.25;exitDx=0;exitDy=0;entryX=-0.022;entryY=0.389;entryDx=0;entryDy=0;entryPerimeter=0;fillColor=#d5e8d4;strokeColor=#82b366;" parent="1" source="cGZ3a3O14eYahLOS3wgB-2" target="cGZ3a3O14eYahLOS3wgB-1" edge="1">
          <mxGeometry width="50" height="50" relative="1" as="geometry">
            <mxPoint x="430" y="380" as="sourcePoint" />
            <mxPoint x="480" y="330" as="targetPoint" />
          </mxGeometry>
        </mxCell>
        <mxCell id="cGZ3a3O14eYahLOS3wgB-33" value="" style="endArrow=classic;html=1;exitX=1;exitY=0.75;exitDx=0;exitDy=0;entryX=-0.03;entryY=0.848;entryDx=0;entryDy=0;entryPerimeter=0;fillColor=#f8cecc;strokeColor=#b85450;" parent="1" source="cGZ3a3O14eYahLOS3wgB-2" target="cGZ3a3O14eYahLOS3wgB-1" edge="1">
          <mxGeometry width="50" height="50" relative="1" as="geometry">
            <mxPoint x="430" y="380" as="sourcePoint" />
            <mxPoint x="480" y="330" as="targetPoint" />
          </mxGeometry>
        </mxCell>
        <mxCell id="cGZ3a3O14eYahLOS3wgB-38" value="DwC Agents" style="rounded=1;whiteSpace=wrap;html=1;fillColor=#6d8764;strokeColor=#3A5431;fontColor=#ffffff;" parent="1" vertex="1">
          <mxGeometry x="30" y="20" width="70" height="30" as="geometry" />
        </mxCell>
        <mxCell id="cGZ3a3O14eYahLOS3wgB-40" value="Kafka agents" style="rounded=1;whiteSpace=wrap;html=1;fillColor=#fff2cc;strokeColor=#d6b656;" parent="1" vertex="1">
          <mxGeometry x="30" y="60" width="70" height="30" as="geometry" />
        </mxCell>
        <mxCell id="cGZ3a3O14eYahLOS3wgB-41" value="Kafka agents" style="shape=process;whiteSpace=wrap;html=1;backgroundOutline=1;fillColor=#f5f5f5;strokeColor=#666666;fontColor=#333333;" parent="1" vertex="1">
          <mxGeometry x="30" y="100" width="70" height="30" as="geometry" />
        </mxCell>
        <mxCell id="cGZ3a3O14eYahLOS3wgB-42" value="CALM Agents" style="rounded=1;whiteSpace=wrap;html=1;fillColor=#dae8fc;strokeColor=#6c8ebf;" parent="1" vertex="1">
          <mxGeometry x="30" y="150" width="70" height="30" as="geometry" />
        </mxCell>
      </root>
    </mxGraphModel>
  </diagram>
  <diagram id="hGnuYqmSZJyDiRZlM0Bn" name="Page-2">
    <mxGraphModel dx="1538" dy="724" grid="1" gridSize="10" guides="1" tooltips="1" connect="1" arrows="1" fold="1" page="1" pageScale="1" pageWidth="1169" pageHeight="827" math="0" shadow="0">
      <root>
        <mxCell id="sAIokSdD2PH0zKopVyMn-0" />
        <mxCell id="sAIokSdD2PH0zKopVyMn-1" parent="sAIokSdD2PH0zKopVyMn-0" />
        <mxCell id="sAIokSdD2PH0zKopVyMn-4" value="" style="edgeStyle=orthogonalEdgeStyle;rounded=0;orthogonalLoop=1;jettySize=auto;html=1;" parent="sAIokSdD2PH0zKopVyMn-1" source="sAIokSdD2PH0zKopVyMn-2" target="sAIokSdD2PH0zKopVyMn-3" edge="1">
          <mxGeometry relative="1" as="geometry" />
        </mxCell>
        <mxCell id="sAIokSdD2PH0zKopVyMn-8" value="" style="edgeStyle=orthogonalEdgeStyle;rounded=0;orthogonalLoop=1;jettySize=auto;html=1;" parent="sAIokSdD2PH0zKopVyMn-1" source="sAIokSdD2PH0zKopVyMn-2" target="sAIokSdD2PH0zKopVyMn-7" edge="1">
          <mxGeometry relative="1" as="geometry" />
        </mxCell>
        <mxCell id="sAIokSdD2PH0zKopVyMn-2" value="IEP-Service" style="rounded=1;whiteSpace=wrap;html=1;fillColor=#fff2cc;strokeColor=#d6b656;" parent="sAIokSdD2PH0zKopVyMn-1" vertex="1">
          <mxGeometry x="450" y="250" width="120" height="60" as="geometry" />
        </mxCell>
        <mxCell id="sAIokSdD2PH0zKopVyMn-6" value="" style="edgeStyle=orthogonalEdgeStyle;rounded=0;orthogonalLoop=1;jettySize=auto;html=1;" parent="sAIokSdD2PH0zKopVyMn-1" source="sAIokSdD2PH0zKopVyMn-3" target="sAIokSdD2PH0zKopVyMn-5" edge="1">
          <mxGeometry relative="1" as="geometry" />
        </mxCell>
        <mxCell id="sAIokSdD2PH0zKopVyMn-3" value="AEM-API" style="rounded=1;whiteSpace=wrap;html=1;" parent="sAIokSdD2PH0zKopVyMn-1" vertex="1">
          <mxGeometry x="650" y="250" width="120" height="60" as="geometry" />
        </mxCell>
        <mxCell id="sAIokSdD2PH0zKopVyMn-5" value="Alert Definition Registration" style="shape=process;whiteSpace=wrap;html=1;backgroundOutline=1;rounded=1;" parent="sAIokSdD2PH0zKopVyMn-1" vertex="1">
          <mxGeometry x="650" y="110" width="120" height="60" as="geometry" />
        </mxCell>
        <mxCell id="sAIokSdD2PH0zKopVyMn-7" value="Rule Creation" style="rounded=1;whiteSpace=wrap;html=1;" parent="sAIokSdD2PH0zKopVyMn-1" vertex="1">
          <mxGeometry x="450" y="110" width="120" height="60" as="geometry" />
        </mxCell>
        <mxCell id="sAIokSdD2PH0zKopVyMn-14" value="" style="edgeStyle=orthogonalEdgeStyle;rounded=0;orthogonalLoop=1;jettySize=auto;html=1;" parent="sAIokSdD2PH0zKopVyMn-1" target="sAIokSdD2PH0zKopVyMn-2" edge="1">
          <mxGeometry relative="1" as="geometry">
            <mxPoint x="400" y="280" as="sourcePoint" />
          </mxGeometry>
        </mxCell>
        <mxCell id="sAIokSdD2PH0zKopVyMn-13" value="Monitoring &lt;br&gt;Use Case" style="rounded=1;whiteSpace=wrap;html=1;fillColor=#fff2cc;strokeColor=#d6b656;" parent="sAIokSdD2PH0zKopVyMn-1" vertex="1">
          <mxGeometry x="110" y="250" width="120" height="60" as="geometry" />
        </mxCell>
        <mxCell id="sAIokSdD2PH0zKopVyMn-15" value="1. Event de/Registration&lt;br&gt;2. Use Case Alert de/Registration" style="shape=process;whiteSpace=wrap;html=1;backgroundOutline=1;align=left;fillColor=#fff2cc;strokeColor=#d6b656;" parent="sAIokSdD2PH0zKopVyMn-1" vertex="1">
          <mxGeometry x="280" y="230" width="120" height="90" as="geometry" />
        </mxCell>
        <mxCell id="k9DFySCS7ybZrUjvcpfR-10" value="" style="edgeStyle=orthogonalEdgeStyle;rounded=0;orthogonalLoop=1;jettySize=auto;html=1;" parent="sAIokSdD2PH0zKopVyMn-1" source="k9DFySCS7ybZrUjvcpfR-0" target="k9DFySCS7ybZrUjvcpfR-9" edge="1">
          <mxGeometry relative="1" as="geometry" />
        </mxCell>
        <mxCell id="k9DFySCS7ybZrUjvcpfR-0" value="IEP-Inbound-Service" style="rounded=1;whiteSpace=wrap;html=1;" parent="sAIokSdD2PH0zKopVyMn-1" vertex="1">
          <mxGeometry x="500" y="395" width="120" height="60" as="geometry" />
        </mxCell>
        <mxCell id="k9DFySCS7ybZrUjvcpfR-7" value="" style="edgeStyle=orthogonalEdgeStyle;rounded=0;orthogonalLoop=1;jettySize=auto;html=1;" parent="sAIokSdD2PH0zKopVyMn-1" source="k9DFySCS7ybZrUjvcpfR-1" target="k9DFySCS7ybZrUjvcpfR-0" edge="1">
          <mxGeometry relative="1" as="geometry" />
        </mxCell>
        <mxCell id="k9DFySCS7ybZrUjvcpfR-1" value="1. HandleBtpEvent&lt;br&gt;2. HandleUseCaseEvent" style="shape=process;whiteSpace=wrap;html=1;backgroundOutline=1;align=left;" parent="sAIokSdD2PH0zKopVyMn-1" vertex="1">
          <mxGeometry x="280" y="370" width="170" height="110" as="geometry" />
        </mxCell>
        <mxCell id="k9DFySCS7ybZrUjvcpfR-2" value="Monitoring &lt;br&gt;Use Case" style="rounded=1;whiteSpace=wrap;html=1;" parent="sAIokSdD2PH0zKopVyMn-1" vertex="1">
          <mxGeometry x="110" y="360" width="120" height="60" as="geometry" />
        </mxCell>
        <mxCell id="k9DFySCS7ybZrUjvcpfR-3" value="BTP" style="rounded=1;whiteSpace=wrap;html=1;" parent="sAIokSdD2PH0zKopVyMn-1" vertex="1">
          <mxGeometry x="110" y="440" width="120" height="60" as="geometry" />
        </mxCell>
        <mxCell id="k9DFySCS7ybZrUjvcpfR-5" value="" style="endArrow=classic;html=1;entryX=0;entryY=0.5;entryDx=0;entryDy=0;exitX=1;exitY=0.5;exitDx=0;exitDy=0;" parent="sAIokSdD2PH0zKopVyMn-1" source="k9DFySCS7ybZrUjvcpfR-3" target="k9DFySCS7ybZrUjvcpfR-1" edge="1">
          <mxGeometry width="50" height="50" relative="1" as="geometry">
            <mxPoint x="220" y="470" as="sourcePoint" />
            <mxPoint x="270" y="420" as="targetPoint" />
          </mxGeometry>
        </mxCell>
        <mxCell id="k9DFySCS7ybZrUjvcpfR-6" value="" style="endArrow=classic;html=1;entryX=0;entryY=0.5;entryDx=0;entryDy=0;" parent="sAIokSdD2PH0zKopVyMn-1" target="k9DFySCS7ybZrUjvcpfR-1" edge="1">
          <mxGeometry width="50" height="50" relative="1" as="geometry">
            <mxPoint x="230" y="390" as="sourcePoint" />
            <mxPoint x="280" y="340" as="targetPoint" />
          </mxGeometry>
        </mxCell>
        <mxCell id="k9DFySCS7ybZrUjvcpfR-9" value="AEM-API" style="whiteSpace=wrap;html=1;rounded=1;" parent="sAIokSdD2PH0zKopVyMn-1" vertex="1">
          <mxGeometry x="680" y="395" width="120" height="60" as="geometry" />
        </mxCell>
        <mxCell id="J46CZMm_z4-9tF7BygL5-3" value="" style="endArrow=classic;html=1;" parent="sAIokSdD2PH0zKopVyMn-1" edge="1">
          <mxGeometry width="50" height="50" relative="1" as="geometry">
            <mxPoint x="230" y="280" as="sourcePoint" />
            <mxPoint x="281" y="282" as="targetPoint" />
          </mxGeometry>
        </mxCell>
      </root>
    </mxGraphModel>
  </diagram>
  <diagram id="5SDaWKwkImmYACr4MY5m" name="Page-3">
    <mxGraphModel dx="1538" dy="724" grid="1" gridSize="10" guides="1" tooltips="1" connect="1" arrows="1" fold="1" page="1" pageScale="1" pageWidth="1169" pageHeight="827" math="0" shadow="0">
      <root>
        <mxCell id="w7hxMAN9nZTi5yEB6cQT-0" />
        <mxCell id="w7hxMAN9nZTi5yEB6cQT-1" parent="w7hxMAN9nZTi5yEB6cQT-0" />
        <mxCell id="w7hxMAN9nZTi5yEB6cQT-6" value="" style="edgeStyle=orthogonalEdgeStyle;rounded=0;orthogonalLoop=1;jettySize=auto;html=1;" parent="w7hxMAN9nZTi5yEB6cQT-1" source="w7hxMAN9nZTi5yEB6cQT-2" target="w7hxMAN9nZTi5yEB6cQT-5" edge="1">
          <mxGeometry relative="1" as="geometry" />
        </mxCell>
        <mxCell id="w7hxMAN9nZTi5yEB6cQT-2" value="Use Case" style="rounded=1;whiteSpace=wrap;html=1;" parent="w7hxMAN9nZTi5yEB6cQT-1" vertex="1">
          <mxGeometry x="120" y="130" width="120" height="60" as="geometry" />
        </mxCell>
        <mxCell id="w7hxMAN9nZTi5yEB6cQT-8" value="" style="edgeStyle=orthogonalEdgeStyle;rounded=0;orthogonalLoop=1;jettySize=auto;html=1;" parent="w7hxMAN9nZTi5yEB6cQT-1" source="w7hxMAN9nZTi5yEB6cQT-5" target="w7hxMAN9nZTi5yEB6cQT-7" edge="1">
          <mxGeometry relative="1" as="geometry" />
        </mxCell>
        <mxCell id="JDfKiPoXJ20UcBOEUTAT-1" value="" style="edgeStyle=orthogonalEdgeStyle;rounded=0;orthogonalLoop=1;jettySize=auto;html=1;dashed=1;" parent="w7hxMAN9nZTi5yEB6cQT-1" source="w7hxMAN9nZTi5yEB6cQT-5" target="JDfKiPoXJ20UcBOEUTAT-0" edge="1">
          <mxGeometry relative="1" as="geometry" />
        </mxCell>
        <mxCell id="w7hxMAN9nZTi5yEB6cQT-5" value="Event Type,&lt;br&gt;Event Subtype" style="shape=process;whiteSpace=wrap;html=1;backgroundOutline=1;rounded=1;" parent="w7hxMAN9nZTi5yEB6cQT-1" vertex="1">
          <mxGeometry x="320" y="130" width="120" height="60" as="geometry" />
        </mxCell>
        <mxCell id="w7hxMAN9nZTi5yEB6cQT-7" value="IEP" style="whiteSpace=wrap;html=1;rounded=1;" parent="w7hxMAN9nZTi5yEB6cQT-1" vertex="1">
          <mxGeometry x="520" y="130" width="120" height="60" as="geometry" />
        </mxCell>
        <mxCell id="UsbdaC_BdFmk9nG5hLAP-2" style="edgeStyle=orthogonalEdgeStyle;rounded=0;orthogonalLoop=1;jettySize=auto;html=1;dashed=1;exitX=0.5;exitY=1;exitDx=0;exitDy=0;" parent="w7hxMAN9nZTi5yEB6cQT-1" source="UsbdaC_BdFmk9nG5hLAP-0" target="w7hxMAN9nZTi5yEB6cQT-5" edge="1">
          <mxGeometry relative="1" as="geometry">
            <mxPoint x="380" y="110" as="sourcePoint" />
          </mxGeometry>
        </mxCell>
        <mxCell id="UsbdaC_BdFmk9nG5hLAP-0" value="Event Configuration" style="text;html=1;strokeColor=none;fillColor=none;align=center;verticalAlign=middle;whiteSpace=wrap;rounded=0;" parent="w7hxMAN9nZTi5yEB6cQT-1" vertex="1">
          <mxGeometry x="325" y="70" width="110" height="20" as="geometry" />
        </mxCell>
        <mxCell id="JDfKiPoXJ20UcBOEUTAT-9" value="" style="edgeStyle=orthogonalEdgeStyle;rounded=0;orthogonalLoop=1;jettySize=auto;html=1;dashed=1;" parent="w7hxMAN9nZTi5yEB6cQT-1" source="JDfKiPoXJ20UcBOEUTAT-0" target="JDfKiPoXJ20UcBOEUTAT-8" edge="1">
          <mxGeometry relative="1" as="geometry" />
        </mxCell>
        <mxCell id="JDfKiPoXJ20UcBOEUTAT-0" value="&lt;ol&gt;&lt;li&gt;Event Type,&lt;/li&gt;&lt;li&gt;Event Subtype,&lt;/li&gt;&lt;li&gt;Source,&lt;/li&gt;&lt;li&gt;Event location&lt;/li&gt;&lt;/ol&gt;" style="shape=process;whiteSpace=wrap;html=1;backgroundOutline=1;rounded=1;align=left;" parent="w7hxMAN9nZTi5yEB6cQT-1" vertex="1">
          <mxGeometry x="295" y="270" width="170" height="90" as="geometry" />
        </mxCell>
        <mxCell id="JDfKiPoXJ20UcBOEUTAT-2" value="&lt;ol&gt;&lt;li&gt;Event Type,&lt;/li&gt;&lt;li&gt;Event Subtype,&lt;/li&gt;&lt;li&gt;sender,&lt;/li&gt;&lt;li&gt;receiver&lt;/li&gt;&lt;/ol&gt;" style="shape=process;whiteSpace=wrap;html=1;backgroundOutline=1;rounded=1;align=left;" parent="w7hxMAN9nZTi5yEB6cQT-1" vertex="1">
          <mxGeometry x="545" y="270" width="170" height="90" as="geometry" />
        </mxCell>
        <mxCell id="JDfKiPoXJ20UcBOEUTAT-4" value="" style="endArrow=none;dashed=1;html=1;" parent="w7hxMAN9nZTi5yEB6cQT-1" edge="1">
          <mxGeometry width="50" height="50" relative="1" as="geometry">
            <mxPoint x="465" y="320" as="sourcePoint" />
            <mxPoint x="540" y="320" as="targetPoint" />
          </mxGeometry>
        </mxCell>
        <mxCell id="JDfKiPoXJ20UcBOEUTAT-5" value="&lt;ol&gt;&lt;li&gt;Event Type,&lt;/li&gt;&lt;li&gt;Event Subtype,&lt;/li&gt;&lt;li&gt;raised By,&lt;/li&gt;&lt;li&gt;raised on&lt;/li&gt;&lt;/ol&gt;" style="shape=process;whiteSpace=wrap;html=1;backgroundOutline=1;rounded=1;align=left;" parent="w7hxMAN9nZTi5yEB6cQT-1" vertex="1">
          <mxGeometry x="45" y="270" width="170" height="90" as="geometry" />
        </mxCell>
        <mxCell id="JDfKiPoXJ20UcBOEUTAT-7" value="" style="endArrow=none;dashed=1;html=1;" parent="w7hxMAN9nZTi5yEB6cQT-1" edge="1">
          <mxGeometry width="50" height="50" relative="1" as="geometry">
            <mxPoint x="215" y="320" as="sourcePoint" />
            <mxPoint x="290" y="320" as="targetPoint" />
          </mxGeometry>
        </mxCell>
        <mxCell id="JDfKiPoXJ20UcBOEUTAT-11" value="" style="edgeStyle=orthogonalEdgeStyle;rounded=0;orthogonalLoop=1;jettySize=auto;html=1;dashed=1;" parent="w7hxMAN9nZTi5yEB6cQT-1" source="JDfKiPoXJ20UcBOEUTAT-8" target="JDfKiPoXJ20UcBOEUTAT-10" edge="1">
          <mxGeometry relative="1" as="geometry" />
        </mxCell>
        <mxCell id="JDfKiPoXJ20UcBOEUTAT-13" value="" style="edgeStyle=orthogonalEdgeStyle;rounded=0;orthogonalLoop=1;jettySize=auto;html=1;dashed=1;" parent="w7hxMAN9nZTi5yEB6cQT-1" source="JDfKiPoXJ20UcBOEUTAT-8" target="JDfKiPoXJ20UcBOEUTAT-12" edge="1">
          <mxGeometry relative="1" as="geometry" />
        </mxCell>
        <mxCell id="JDfKiPoXJ20UcBOEUTAT-15" value="" style="edgeStyle=orthogonalEdgeStyle;rounded=0;orthogonalLoop=1;jettySize=auto;html=1;dashed=1;" parent="w7hxMAN9nZTi5yEB6cQT-1" source="JDfKiPoXJ20UcBOEUTAT-8" target="JDfKiPoXJ20UcBOEUTAT-14" edge="1">
          <mxGeometry relative="1" as="geometry" />
        </mxCell>
        <mxCell id="JDfKiPoXJ20UcBOEUTAT-8" value="&lt;ol&gt;&lt;li&gt;Event Type,&lt;/li&gt;&lt;li&gt;Event Subtype,&lt;/li&gt;&lt;li&gt;Filter = { Source , Event Location }&lt;/li&gt;&lt;/ol&gt;" style="shape=process;whiteSpace=wrap;html=1;backgroundOutline=1;rounded=1;align=left;" parent="w7hxMAN9nZTi5yEB6cQT-1" vertex="1">
          <mxGeometry x="295" y="440" width="170" height="90" as="geometry" />
        </mxCell>
        <mxCell id="JDfKiPoXJ20UcBOEUTAT-10" value="&lt;ol&gt;&lt;li&gt;Event Type,&lt;/li&gt;&lt;li&gt;Event Subtype,&lt;/li&gt;&lt;li&gt;Filter = { Sender , receiver }&lt;/li&gt;&lt;/ol&gt;" style="shape=process;whiteSpace=wrap;html=1;backgroundOutline=1;rounded=1;align=left;" parent="w7hxMAN9nZTi5yEB6cQT-1" vertex="1">
          <mxGeometry x="545" y="440" width="170" height="90" as="geometry" />
        </mxCell>
        <mxCell id="JDfKiPoXJ20UcBOEUTAT-12" value="&lt;ol&gt;&lt;li&gt;Event Type,&lt;/li&gt;&lt;li&gt;Event Subtype,&lt;/li&gt;&lt;li&gt;Filter = { raisedby , raised on }&lt;/li&gt;&lt;/ol&gt;" style="shape=process;whiteSpace=wrap;html=1;backgroundOutline=1;rounded=1;align=left;" parent="w7hxMAN9nZTi5yEB6cQT-1" vertex="1">
          <mxGeometry x="45" y="440" width="170" height="90" as="geometry" />
        </mxCell>
        <mxCell id="coGxBecN0fBcglVMEZxR-3" value="" style="edgeStyle=orthogonalEdgeStyle;rounded=0;orthogonalLoop=1;jettySize=auto;html=1;" parent="w7hxMAN9nZTi5yEB6cQT-1" source="JDfKiPoXJ20UcBOEUTAT-14" target="coGxBecN0fBcglVMEZxR-1" edge="1">
          <mxGeometry relative="1" as="geometry" />
        </mxCell>
        <mxCell id="JDfKiPoXJ20UcBOEUTAT-14" value="&lt;ol&gt;&lt;li&gt;&lt;b&gt;ID - &lt;/b&gt;Event configuration Id&lt;/li&gt;&lt;li&gt;Event Type,&lt;/li&gt;&lt;li&gt;Event Subtype,&lt;/li&gt;&lt;li&gt;Filter&lt;/li&gt;&lt;/ol&gt;" style="shape=process;whiteSpace=wrap;html=1;backgroundOutline=1;rounded=1;align=left;" parent="w7hxMAN9nZTi5yEB6cQT-1" vertex="1">
          <mxGeometry x="295" y="610" width="170" height="90" as="geometry" />
        </mxCell>
        <mxCell id="coGxBecN0fBcglVMEZxR-2" value="" style="edgeStyle=orthogonalEdgeStyle;rounded=0;orthogonalLoop=1;jettySize=auto;html=1;" parent="w7hxMAN9nZTi5yEB6cQT-1" source="coGxBecN0fBcglVMEZxR-0" target="JDfKiPoXJ20UcBOEUTAT-14" edge="1">
          <mxGeometry relative="1" as="geometry" />
        </mxCell>
        <mxCell id="coGxBecN0fBcglVMEZxR-0" value="Use Case" style="rounded=1;whiteSpace=wrap;html=1;align=center;" parent="w7hxMAN9nZTi5yEB6cQT-1" vertex="1">
          <mxGeometry x="120" y="625" width="120" height="60" as="geometry" />
        </mxCell>
        <mxCell id="coGxBecN0fBcglVMEZxR-1" value="IEP service" style="rounded=1;whiteSpace=wrap;html=1;align=center;" parent="w7hxMAN9nZTi5yEB6cQT-1" vertex="1">
          <mxGeometry x="520" y="625" width="120" height="60" as="geometry" />
        </mxCell>
      </root>
    </mxGraphModel>
  </diagram>
  <diagram id="Dp13wZ_2UPJu_NVUw7CH" name="Page-4">
    <mxGraphModel dx="1538" dy="724" grid="1" gridSize="10" guides="1" tooltips="1" connect="1" arrows="1" fold="1" page="1" pageScale="1" pageWidth="1169" pageHeight="827" math="0" shadow="0">
      <root>
        <mxCell id="jZzCggMNX5cnEhLZF3wa-0" />
        <mxCell id="jZzCggMNX5cnEhLZF3wa-1" parent="jZzCggMNX5cnEhLZF3wa-0" />
        <mxCell id="jZzCggMNX5cnEhLZF3wa-2" value="Rule Event Map" style="shape=table;startSize=30;container=1;collapsible=1;childLayout=tableLayout;fixedRows=1;rowLines=0;fontStyle=1;align=center;resizeLast=1;" parent="jZzCggMNX5cnEhLZF3wa-1" vertex="1">
          <mxGeometry x="380" y="170" width="180" height="100" as="geometry" />
        </mxCell>
        <mxCell id="jZzCggMNX5cnEhLZF3wa-3" value="" style="shape=partialRectangle;collapsible=0;dropTarget=0;pointerEvents=0;fillColor=none;top=0;left=0;bottom=1;right=0;points=[[0,0.5],[1,0.5]];portConstraint=eastwest;" parent="jZzCggMNX5cnEhLZF3wa-2" vertex="1">
          <mxGeometry y="30" width="180" height="30" as="geometry" />
        </mxCell>
        <mxCell id="jZzCggMNX5cnEhLZF3wa-4" value="PK" style="shape=partialRectangle;connectable=0;fillColor=none;top=0;left=0;bottom=0;right=0;fontStyle=1;overflow=hidden;" parent="jZzCggMNX5cnEhLZF3wa-3" vertex="1">
          <mxGeometry width="30" height="30" as="geometry" />
        </mxCell>
        <mxCell id="jZzCggMNX5cnEhLZF3wa-5" value="Event Configuration ID" style="shape=partialRectangle;connectable=0;fillColor=none;top=0;left=0;bottom=0;right=0;align=left;spacingLeft=6;fontStyle=5;overflow=hidden;" parent="jZzCggMNX5cnEhLZF3wa-3" vertex="1">
          <mxGeometry x="30" width="150" height="30" as="geometry" />
        </mxCell>
        <mxCell id="jZzCggMNX5cnEhLZF3wa-6" value="" style="shape=partialRectangle;collapsible=0;dropTarget=0;pointerEvents=0;fillColor=none;top=0;left=0;bottom=0;right=0;points=[[0,0.5],[1,0.5]];portConstraint=eastwest;" parent="jZzCggMNX5cnEhLZF3wa-2" vertex="1">
          <mxGeometry y="60" width="180" height="30" as="geometry" />
        </mxCell>
        <mxCell id="jZzCggMNX5cnEhLZF3wa-7" value="" style="shape=partialRectangle;connectable=0;fillColor=none;top=0;left=0;bottom=0;right=0;editable=1;overflow=hidden;" parent="jZzCggMNX5cnEhLZF3wa-6" vertex="1">
          <mxGeometry width="30" height="30" as="geometry" />
        </mxCell>
        <mxCell id="jZzCggMNX5cnEhLZF3wa-8" value="Rule ID" style="shape=partialRectangle;connectable=0;fillColor=none;top=0;left=0;bottom=0;right=0;align=left;spacingLeft=6;overflow=hidden;" parent="jZzCggMNX5cnEhLZF3wa-6" vertex="1">
          <mxGeometry x="30" width="150" height="30" as="geometry" />
        </mxCell>
        <mxCell id="jZzCggMNX5cnEhLZF3wa-15" value="Rule" style="shape=table;startSize=30;container=1;collapsible=1;childLayout=tableLayout;fixedRows=1;rowLines=0;fontStyle=1;align=center;resizeLast=1;" parent="jZzCggMNX5cnEhLZF3wa-1" vertex="1">
          <mxGeometry x="50" y="150" width="180" height="160" as="geometry" />
        </mxCell>
        <mxCell id="jZzCggMNX5cnEhLZF3wa-16" value="" style="shape=partialRectangle;collapsible=0;dropTarget=0;pointerEvents=0;fillColor=none;top=0;left=0;bottom=1;right=0;points=[[0,0.5],[1,0.5]];portConstraint=eastwest;" parent="jZzCggMNX5cnEhLZF3wa-15" vertex="1">
          <mxGeometry y="30" width="180" height="30" as="geometry" />
        </mxCell>
        <mxCell id="jZzCggMNX5cnEhLZF3wa-17" value="PK" style="shape=partialRectangle;connectable=0;fillColor=none;top=0;left=0;bottom=0;right=0;fontStyle=1;overflow=hidden;" parent="jZzCggMNX5cnEhLZF3wa-16" vertex="1">
          <mxGeometry width="30" height="30" as="geometry" />
        </mxCell>
        <mxCell id="jZzCggMNX5cnEhLZF3wa-18" value="RuleID" style="shape=partialRectangle;connectable=0;fillColor=none;top=0;left=0;bottom=0;right=0;align=left;spacingLeft=6;fontStyle=5;overflow=hidden;" parent="jZzCggMNX5cnEhLZF3wa-16" vertex="1">
          <mxGeometry x="30" width="150" height="30" as="geometry" />
        </mxCell>
        <mxCell id="jZzCggMNX5cnEhLZF3wa-19" value="" style="shape=partialRectangle;collapsible=0;dropTarget=0;pointerEvents=0;fillColor=none;top=0;left=0;bottom=0;right=0;points=[[0,0.5],[1,0.5]];portConstraint=eastwest;" parent="jZzCggMNX5cnEhLZF3wa-15" vertex="1">
          <mxGeometry y="60" width="180" height="30" as="geometry" />
        </mxCell>
        <mxCell id="jZzCggMNX5cnEhLZF3wa-20" value="" style="shape=partialRectangle;connectable=0;fillColor=none;top=0;left=0;bottom=0;right=0;editable=1;overflow=hidden;" parent="jZzCggMNX5cnEhLZF3wa-19" vertex="1">
          <mxGeometry width="30" height="30" as="geometry" />
        </mxCell>
        <mxCell id="jZzCggMNX5cnEhLZF3wa-21" value="Name" style="shape=partialRectangle;connectable=0;fillColor=none;top=0;left=0;bottom=0;right=0;align=left;spacingLeft=6;overflow=hidden;" parent="jZzCggMNX5cnEhLZF3wa-19" vertex="1">
          <mxGeometry x="30" width="150" height="30" as="geometry" />
        </mxCell>
        <mxCell id="jZzCggMNX5cnEhLZF3wa-22" value="" style="shape=partialRectangle;collapsible=0;dropTarget=0;pointerEvents=0;fillColor=none;top=0;left=0;bottom=0;right=0;points=[[0,0.5],[1,0.5]];portConstraint=eastwest;" parent="jZzCggMNX5cnEhLZF3wa-15" vertex="1">
          <mxGeometry y="90" width="180" height="30" as="geometry" />
        </mxCell>
        <mxCell id="jZzCggMNX5cnEhLZF3wa-23" value="" style="shape=partialRectangle;connectable=0;fillColor=none;top=0;left=0;bottom=0;right=0;editable=1;overflow=hidden;" parent="jZzCggMNX5cnEhLZF3wa-22" vertex="1">
          <mxGeometry width="30" height="30" as="geometry" />
        </mxCell>
        <mxCell id="jZzCggMNX5cnEhLZF3wa-24" value="IsActive" style="shape=partialRectangle;connectable=0;fillColor=none;top=0;left=0;bottom=0;right=0;align=left;spacingLeft=6;overflow=hidden;" parent="jZzCggMNX5cnEhLZF3wa-22" vertex="1">
          <mxGeometry x="30" width="150" height="30" as="geometry" />
        </mxCell>
        <mxCell id="jZzCggMNX5cnEhLZF3wa-25" value="" style="shape=partialRectangle;collapsible=0;dropTarget=0;pointerEvents=0;fillColor=none;top=0;left=0;bottom=0;right=0;points=[[0,0.5],[1,0.5]];portConstraint=eastwest;" parent="jZzCggMNX5cnEhLZF3wa-15" vertex="1">
          <mxGeometry y="120" width="180" height="30" as="geometry" />
        </mxCell>
        <mxCell id="jZzCggMNX5cnEhLZF3wa-26" value="" style="shape=partialRectangle;connectable=0;fillColor=none;top=0;left=0;bottom=0;right=0;editable=1;overflow=hidden;" parent="jZzCggMNX5cnEhLZF3wa-25" vertex="1">
          <mxGeometry width="30" height="30" as="geometry" />
        </mxCell>
        <mxCell id="jZzCggMNX5cnEhLZF3wa-27" value="Event" style="shape=partialRectangle;connectable=0;fillColor=none;top=0;left=0;bottom=0;right=0;align=left;spacingLeft=6;overflow=hidden;" parent="jZzCggMNX5cnEhLZF3wa-25" vertex="1">
          <mxGeometry x="30" width="150" height="30" as="geometry" />
        </mxCell>
        <mxCell id="jZzCggMNX5cnEhLZF3wa-28" value="Event Configuration" style="shape=table;startSize=30;container=1;collapsible=1;childLayout=tableLayout;fixedRows=1;rowLines=0;fontStyle=1;align=center;resizeLast=1;" parent="jZzCggMNX5cnEhLZF3wa-1" vertex="1">
          <mxGeometry x="50" y="340" width="180" height="160" as="geometry" />
        </mxCell>
        <mxCell id="jZzCggMNX5cnEhLZF3wa-29" value="" style="shape=partialRectangle;collapsible=0;dropTarget=0;pointerEvents=0;fillColor=none;top=0;left=0;bottom=1;right=0;points=[[0,0.5],[1,0.5]];portConstraint=eastwest;" parent="jZzCggMNX5cnEhLZF3wa-28" vertex="1">
          <mxGeometry y="30" width="180" height="30" as="geometry" />
        </mxCell>
        <mxCell id="jZzCggMNX5cnEhLZF3wa-30" value="PK" style="shape=partialRectangle;connectable=0;fillColor=none;top=0;left=0;bottom=0;right=0;fontStyle=1;overflow=hidden;" parent="jZzCggMNX5cnEhLZF3wa-29" vertex="1">
          <mxGeometry width="30" height="30" as="geometry" />
        </mxCell>
        <mxCell id="jZzCggMNX5cnEhLZF3wa-31" value="RuleID" style="shape=partialRectangle;connectable=0;fillColor=none;top=0;left=0;bottom=0;right=0;align=left;spacingLeft=6;fontStyle=5;overflow=hidden;" parent="jZzCggMNX5cnEhLZF3wa-29" vertex="1">
          <mxGeometry x="30" width="150" height="30" as="geometry" />
        </mxCell>
        <mxCell id="jZzCggMNX5cnEhLZF3wa-32" value="" style="shape=partialRectangle;collapsible=0;dropTarget=0;pointerEvents=0;fillColor=none;top=0;left=0;bottom=0;right=0;points=[[0,0.5],[1,0.5]];portConstraint=eastwest;" parent="jZzCggMNX5cnEhLZF3wa-28" vertex="1">
          <mxGeometry y="60" width="180" height="30" as="geometry" />
        </mxCell>
        <mxCell id="jZzCggMNX5cnEhLZF3wa-33" value="" style="shape=partialRectangle;connectable=0;fillColor=none;top=0;left=0;bottom=0;right=0;editable=1;overflow=hidden;" parent="jZzCggMNX5cnEhLZF3wa-32" vertex="1">
          <mxGeometry width="30" height="30" as="geometry" />
        </mxCell>
        <mxCell id="jZzCggMNX5cnEhLZF3wa-34" value="Attribute" style="shape=partialRectangle;connectable=0;fillColor=none;top=0;left=0;bottom=0;right=0;align=left;spacingLeft=6;overflow=hidden;" parent="jZzCggMNX5cnEhLZF3wa-32" vertex="1">
          <mxGeometry x="30" width="150" height="30" as="geometry" />
        </mxCell>
        <mxCell id="jZzCggMNX5cnEhLZF3wa-35" value="" style="shape=partialRectangle;collapsible=0;dropTarget=0;pointerEvents=0;fillColor=none;top=0;left=0;bottom=0;right=0;points=[[0,0.5],[1,0.5]];portConstraint=eastwest;" parent="jZzCggMNX5cnEhLZF3wa-28" vertex="1">
          <mxGeometry y="90" width="180" height="30" as="geometry" />
        </mxCell>
        <mxCell id="jZzCggMNX5cnEhLZF3wa-36" value="" style="shape=partialRectangle;connectable=0;fillColor=none;top=0;left=0;bottom=0;right=0;editable=1;overflow=hidden;" parent="jZzCggMNX5cnEhLZF3wa-35" vertex="1">
          <mxGeometry width="30" height="30" as="geometry" />
        </mxCell>
        <mxCell id="jZzCggMNX5cnEhLZF3wa-37" value="Attribute Value" style="shape=partialRectangle;connectable=0;fillColor=none;top=0;left=0;bottom=0;right=0;align=left;spacingLeft=6;overflow=hidden;" parent="jZzCggMNX5cnEhLZF3wa-35" vertex="1">
          <mxGeometry x="30" width="150" height="30" as="geometry" />
        </mxCell>
        <mxCell id="jZzCggMNX5cnEhLZF3wa-38" value="" style="shape=partialRectangle;collapsible=0;dropTarget=0;pointerEvents=0;fillColor=none;top=0;left=0;bottom=0;right=0;points=[[0,0.5],[1,0.5]];portConstraint=eastwest;" parent="jZzCggMNX5cnEhLZF3wa-28" vertex="1">
          <mxGeometry y="120" width="180" height="30" as="geometry" />
        </mxCell>
        <mxCell id="jZzCggMNX5cnEhLZF3wa-39" value="" style="shape=partialRectangle;connectable=0;fillColor=none;top=0;left=0;bottom=0;right=0;editable=1;overflow=hidden;" parent="jZzCggMNX5cnEhLZF3wa-38" vertex="1">
          <mxGeometry width="30" height="30" as="geometry" />
        </mxCell>
        <mxCell id="jZzCggMNX5cnEhLZF3wa-40" value="Operator" style="shape=partialRectangle;connectable=0;fillColor=none;top=0;left=0;bottom=0;right=0;align=left;spacingLeft=6;overflow=hidden;" parent="jZzCggMNX5cnEhLZF3wa-38" vertex="1">
          <mxGeometry x="30" width="150" height="30" as="geometry" />
        </mxCell>
        <mxCell id="GNLivTSFC_bb-17SxKNN-0" value="&lt;ol&gt;&lt;li&gt;&lt;b&gt;ID - Event configuration Id&lt;/b&gt;&lt;/li&gt;&lt;li&gt;Event Type,&lt;/li&gt;&lt;li&gt;Event Subtype,&lt;/li&gt;&lt;li&gt;&lt;b&gt;Filter&lt;/b&gt;&lt;/li&gt;&lt;/ol&gt;" style="shape=process;whiteSpace=wrap;html=1;backgroundOutline=1;rounded=1;align=left;" parent="jZzCggMNX5cnEhLZF3wa-1" vertex="1">
          <mxGeometry x="55" y="30" width="170" height="90" as="geometry" />
        </mxCell>
        <mxCell id="GNLivTSFC_bb-17SxKNN-1" value="Rule Event Map" style="shape=table;startSize=30;container=1;collapsible=1;childLayout=tableLayout;fixedRows=1;rowLines=0;fontStyle=1;align=center;resizeLast=1;" parent="jZzCggMNX5cnEhLZF3wa-1" vertex="1">
          <mxGeometry x="380" y="320" width="180" height="100" as="geometry" />
        </mxCell>
        <mxCell id="GNLivTSFC_bb-17SxKNN-2" value="" style="shape=partialRectangle;collapsible=0;dropTarget=0;pointerEvents=0;fillColor=none;top=0;left=0;bottom=1;right=0;points=[[0,0.5],[1,0.5]];portConstraint=eastwest;" parent="GNLivTSFC_bb-17SxKNN-1" vertex="1">
          <mxGeometry y="30" width="180" height="30" as="geometry" />
        </mxCell>
        <mxCell id="GNLivTSFC_bb-17SxKNN-3" value="PK" style="shape=partialRectangle;connectable=0;fillColor=none;top=0;left=0;bottom=0;right=0;fontStyle=1;overflow=hidden;" parent="GNLivTSFC_bb-17SxKNN-2" vertex="1">
          <mxGeometry width="30" height="30" as="geometry" />
        </mxCell>
        <mxCell id="GNLivTSFC_bb-17SxKNN-4" value="Rule ID" style="shape=partialRectangle;connectable=0;fillColor=none;top=0;left=0;bottom=0;right=0;align=left;spacingLeft=6;fontStyle=5;overflow=hidden;" parent="GNLivTSFC_bb-17SxKNN-2" vertex="1">
          <mxGeometry x="30" width="150" height="30" as="geometry" />
        </mxCell>
        <mxCell id="GNLivTSFC_bb-17SxKNN-5" value="" style="shape=partialRectangle;collapsible=0;dropTarget=0;pointerEvents=0;fillColor=none;top=0;left=0;bottom=0;right=0;points=[[0,0.5],[1,0.5]];portConstraint=eastwest;" parent="GNLivTSFC_bb-17SxKNN-1" vertex="1">
          <mxGeometry y="60" width="180" height="30" as="geometry" />
        </mxCell>
        <mxCell id="GNLivTSFC_bb-17SxKNN-6" value="" style="shape=partialRectangle;connectable=0;fillColor=none;top=0;left=0;bottom=0;right=0;editable=1;overflow=hidden;" parent="GNLivTSFC_bb-17SxKNN-5" vertex="1">
          <mxGeometry width="30" height="30" as="geometry" />
        </mxCell>
        <mxCell id="GNLivTSFC_bb-17SxKNN-7" value="Event Configuration ID" style="shape=partialRectangle;connectable=0;fillColor=none;top=0;left=0;bottom=0;right=0;align=left;spacingLeft=6;overflow=hidden;" parent="GNLivTSFC_bb-17SxKNN-5" vertex="1">
          <mxGeometry x="30" width="150" height="30" as="geometry" />
        </mxCell>
        <object label="Rule Event Map" EventConfigID="" id="GNLivTSFC_bb-17SxKNN-8">
          <mxCell style="shape=table;startSize=30;container=1;collapsible=1;childLayout=tableLayout;fixedRows=1;rowLines=0;fontStyle=1;align=center;resizeLast=1;" parent="jZzCggMNX5cnEhLZF3wa-1" vertex="1">
            <mxGeometry x="590" y="250" width="180" height="100" as="geometry" />
          </mxCell>
        </object>
        <mxCell id="GNLivTSFC_bb-17SxKNN-9" value="" style="shape=partialRectangle;collapsible=0;dropTarget=0;pointerEvents=0;fillColor=none;top=0;left=0;bottom=1;right=0;points=[[0,0.5],[1,0.5]];portConstraint=eastwest;" parent="GNLivTSFC_bb-17SxKNN-8" vertex="1">
          <mxGeometry y="30" width="180" height="30" as="geometry" />
        </mxCell>
        <mxCell id="GNLivTSFC_bb-17SxKNN-10" value="PK" style="shape=partialRectangle;connectable=0;fillColor=none;top=0;left=0;bottom=0;right=0;fontStyle=1;overflow=hidden;" parent="GNLivTSFC_bb-17SxKNN-9" vertex="1">
          <mxGeometry width="30" height="30" as="geometry" />
        </mxCell>
        <mxCell id="GNLivTSFC_bb-17SxKNN-11" value="Rule ID" style="shape=partialRectangle;connectable=0;fillColor=none;top=0;left=0;bottom=0;right=0;align=left;spacingLeft=6;fontStyle=5;overflow=hidden;" parent="GNLivTSFC_bb-17SxKNN-9" vertex="1">
          <mxGeometry x="30" width="150" height="30" as="geometry" />
        </mxCell>
        <mxCell id="GNLivTSFC_bb-17SxKNN-12" value="" style="shape=partialRectangle;collapsible=0;dropTarget=0;pointerEvents=0;fillColor=none;top=0;left=0;bottom=0;right=0;points=[[0,0.5],[1,0.5]];portConstraint=eastwest;" parent="GNLivTSFC_bb-17SxKNN-8" vertex="1">
          <mxGeometry y="60" width="180" height="30" as="geometry" />
        </mxCell>
        <mxCell id="GNLivTSFC_bb-17SxKNN-13" value="PK" style="shape=partialRectangle;connectable=0;fillColor=none;top=0;left=0;bottom=0;right=0;editable=1;overflow=hidden;fontStyle=1" parent="GNLivTSFC_bb-17SxKNN-12" vertex="1">
          <mxGeometry width="30" height="30" as="geometry" />
        </mxCell>
        <mxCell id="GNLivTSFC_bb-17SxKNN-14" value="Event Configuration ID" style="shape=partialRectangle;connectable=0;fillColor=none;top=0;left=0;bottom=0;right=0;align=left;spacingLeft=6;overflow=hidden;fontStyle=1" parent="GNLivTSFC_bb-17SxKNN-12" vertex="1">
          <mxGeometry x="30" width="150" height="30" as="geometry" />
        </mxCell>
        <mxCell id="GNLivTSFC_bb-17SxKNN-15" value="1: 1" style="text;html=1;strokeColor=none;fillColor=none;align=center;verticalAlign=middle;whiteSpace=wrap;rounded=0;" parent="jZzCggMNX5cnEhLZF3wa-1" vertex="1">
          <mxGeometry x="430" y="130" width="40" height="20" as="geometry" />
        </mxCell>
        <mxCell id="GNLivTSFC_bb-17SxKNN-16" value="N : 1" style="text;html=1;strokeColor=none;fillColor=none;align=center;verticalAlign=middle;whiteSpace=wrap;rounded=0;" parent="jZzCggMNX5cnEhLZF3wa-1" vertex="1">
          <mxGeometry x="460" y="290" width="40" height="20" as="geometry" />
        </mxCell>
        <mxCell id="GNLivTSFC_bb-17SxKNN-17" value="N:N" style="text;html=1;strokeColor=none;fillColor=none;align=center;verticalAlign=middle;whiteSpace=wrap;rounded=0;" parent="jZzCggMNX5cnEhLZF3wa-1" vertex="1">
          <mxGeometry x="660" y="210" width="40" height="20" as="geometry" />
        </mxCell>
      </root>
    </mxGraphModel>
  </diagram>
  <diagram id="9wNmTbAums1HccYD5UFJ" name="Page-5">
    <mxGraphModel dx="1538" dy="724" grid="1" gridSize="10" guides="1" tooltips="1" connect="1" arrows="1" fold="1" page="1" pageScale="1" pageWidth="1169" pageHeight="827" math="0" shadow="0">
      <root>
        <mxCell id="9l8zbSIo2bWAHVmacl6w-0" />
        <mxCell id="9l8zbSIo2bWAHVmacl6w-1" parent="9l8zbSIo2bWAHVmacl6w-0" />
        <mxCell id="9l8zbSIo2bWAHVmacl6w-2" value="&lt;br&gt;&lt;br&gt;" style="rounded=0;whiteSpace=wrap;html=1;fillColor=#FFF2CC;" vertex="1" parent="9l8zbSIo2bWAHVmacl6w-1">
          <mxGeometry x="360" y="240" width="470" height="360" as="geometry" />
        </mxCell>
        <mxCell id="9l8zbSIo2bWAHVmacl6w-6" value="p1" style="rounded=0;whiteSpace=wrap;html=1;" vertex="1" parent="9l8zbSIo2bWAHVmacl6w-1">
          <mxGeometry x="530" y="310" width="80" height="60" as="geometry" />
        </mxCell>
        <mxCell id="9l8zbSIo2bWAHVmacl6w-7" value="p3" style="rounded=0;whiteSpace=wrap;html=1;" vertex="1" parent="9l8zbSIo2bWAHVmacl6w-1">
          <mxGeometry x="685" y="310" width="80" height="60" as="geometry" />
        </mxCell>
        <mxCell id="9l8zbSIo2bWAHVmacl6w-9" value="p1" style="rounded=0;whiteSpace=wrap;html=1;" vertex="1" parent="9l8zbSIo2bWAHVmacl6w-1">
          <mxGeometry x="530" y="460" width="120" height="60" as="geometry" />
        </mxCell>
        <mxCell id="9l8zbSIo2bWAHVmacl6w-14" value="Kafka- Cluster" style="text;html=1;strokeColor=none;fillColor=none;align=center;verticalAlign=middle;whiteSpace=wrap;rounded=0;" vertex="1" parent="9l8zbSIo2bWAHVmacl6w-1">
          <mxGeometry x="720" y="220" width="80" height="20" as="geometry" />
        </mxCell>
        <mxCell id="9l8zbSIo2bWAHVmacl6w-15" value="Kafka-Broker" style="text;html=1;strokeColor=none;fillColor=none;align=center;verticalAlign=middle;whiteSpace=wrap;rounded=0;" vertex="1" parent="9l8zbSIo2bWAHVmacl6w-1">
          <mxGeometry x="375" y="290" width="80" height="20" as="geometry" />
        </mxCell>
        <mxCell id="9l8zbSIo2bWAHVmacl6w-16" value="Topic 1" style="text;html=1;strokeColor=none;fillColor=none;align=center;verticalAlign=middle;whiteSpace=wrap;rounded=0;" vertex="1" parent="9l8zbSIo2bWAHVmacl6w-1">
          <mxGeometry x="605" y="280" width="65" height="20" as="geometry" />
        </mxCell>
        <mxCell id="9l8zbSIo2bWAHVmacl6w-22" value="" style="edgeStyle=orthogonalEdgeStyle;rounded=0;orthogonalLoop=1;jettySize=auto;html=1;" edge="1" parent="9l8zbSIo2bWAHVmacl6w-1" source="9l8zbSIo2bWAHVmacl6w-21">
          <mxGeometry relative="1" as="geometry">
            <mxPoint x="595" y="240" as="targetPoint" />
          </mxGeometry>
        </mxCell>
        <mxCell id="9l8zbSIo2bWAHVmacl6w-21" value="Zoo-Keeper" style="rounded=0;whiteSpace=wrap;html=1;" vertex="1" parent="9l8zbSIo2bWAHVmacl6w-1">
          <mxGeometry x="360" y="140" width="470" height="60" as="geometry" />
        </mxCell>
        <mxCell id="0Jg27CvQV3jKYO-zsZn9-0" value="b1" style="rounded=1;whiteSpace=wrap;html=1;strokeColor=#3333FF;fillColor=#B9E0A5;" vertex="1" parent="9l8zbSIo2bWAHVmacl6w-1">
          <mxGeometry x="370" y="310" width="90" height="60" as="geometry" />
        </mxCell>
        <mxCell id="0Jg27CvQV3jKYO-zsZn9-1" value="p2" style="rounded=0;whiteSpace=wrap;html=1;" vertex="1" parent="9l8zbSIo2bWAHVmacl6w-1">
          <mxGeometry x="610" y="310" width="80" height="60" as="geometry" />
        </mxCell>
        <mxCell id="0Jg27CvQV3jKYO-zsZn9-2" value="p2" style="rounded=0;whiteSpace=wrap;html=1;" vertex="1" parent="9l8zbSIo2bWAHVmacl6w-1">
          <mxGeometry x="630" y="460" width="90" height="60" as="geometry" />
        </mxCell>
        <mxCell id="0Jg27CvQV3jKYO-zsZn9-3" value="b3" style="rounded=1;whiteSpace=wrap;html=1;strokeColor=#3333FF;fillColor=#B9E0A5;" vertex="1" parent="9l8zbSIo2bWAHVmacl6w-1">
          <mxGeometry x="560" y="383.5" width="90" height="60" as="geometry" />
        </mxCell>
        <mxCell id="0Jg27CvQV3jKYO-zsZn9-4" value="b2" style="rounded=1;whiteSpace=wrap;html=1;strokeColor=#3333FF;fillColor=#B9E0A5;" vertex="1" parent="9l8zbSIo2bWAHVmacl6w-1">
          <mxGeometry x="380" y="460" width="90" height="60" as="geometry" />
        </mxCell>
        <mxCell id="0Jg27CvQV3jKYO-zsZn9-5" value="b4" style="rounded=1;whiteSpace=wrap;html=1;strokeColor=#3333FF;fillColor=#B9E0A5;" vertex="1" parent="9l8zbSIo2bWAHVmacl6w-1">
          <mxGeometry x="660" y="384" width="90" height="60" as="geometry" />
        </mxCell>
        <mxCell id="0Jg27CvQV3jKYO-zsZn9-6" value="metadata of brokers" style="shape=process;whiteSpace=wrap;html=1;backgroundOutline=1;strokeColor=#3333FF;fillColor=#FFF4C3;" vertex="1" parent="9l8zbSIo2bWAHVmacl6w-1">
          <mxGeometry x="370" y="150" width="90" height="40" as="geometry" />
        </mxCell>
        <mxCell id="0Jg27CvQV3jKYO-zsZn9-7" value="Topic 2" style="text;whiteSpace=wrap;html=1;" vertex="1" parent="9l8zbSIo2bWAHVmacl6w-1">
          <mxGeometry x="605" y="520" width="70" height="30" as="geometry" />
        </mxCell>
        <mxCell id="0Jg27CvQV3jKYO-zsZn9-9" value="" style="edgeStyle=orthogonalEdgeStyle;rounded=0;orthogonalLoop=1;jettySize=auto;html=1;entryX=0;entryY=0.444;entryDx=0;entryDy=0;entryPerimeter=0;" edge="1" parent="9l8zbSIo2bWAHVmacl6w-1" source="0Jg27CvQV3jKYO-zsZn9-8" target="9l8zbSIo2bWAHVmacl6w-2">
          <mxGeometry relative="1" as="geometry">
            <Array as="points">
              <mxPoint x="250" y="400" />
            </Array>
          </mxGeometry>
        </mxCell>
        <mxCell id="0Jg27CvQV3jKYO-zsZn9-8" value="App" style="rounded=1;whiteSpace=wrap;html=1;strokeColor=#3333FF;fillColor=#FFF4C3;" vertex="1" parent="9l8zbSIo2bWAHVmacl6w-1">
          <mxGeometry x="190" y="250" width="120" height="60" as="geometry" />
        </mxCell>
        <mxCell id="0Jg27CvQV3jKYO-zsZn9-11" value="" style="edgeStyle=orthogonalEdgeStyle;rounded=0;orthogonalLoop=1;jettySize=auto;html=1;" edge="1" parent="9l8zbSIo2bWAHVmacl6w-1" source="0Jg27CvQV3jKYO-zsZn9-10">
          <mxGeometry relative="1" as="geometry">
            <mxPoint x="830" y="400" as="targetPoint" />
            <Array as="points">
              <mxPoint x="940" y="255" />
              <mxPoint x="940" y="400" />
            </Array>
          </mxGeometry>
        </mxCell>
        <mxCell id="0Jg27CvQV3jKYO-zsZn9-10" value="" style="rounded=1;whiteSpace=wrap;html=1;strokeColor=#3333FF;fillColor=#FFF4C3;" vertex="1" parent="9l8zbSIo2bWAHVmacl6w-1">
          <mxGeometry x="870" y="235" width="175" height="110" as="geometry" />
        </mxCell>
        <mxCell id="0Jg27CvQV3jKYO-zsZn9-12" value="c1" style="rounded=1;whiteSpace=wrap;html=1;strokeColor=#3333FF;fillColor=#FFF4C3;" vertex="1" parent="9l8zbSIo2bWAHVmacl6w-1">
          <mxGeometry x="880" y="250" width="80" height="60" as="geometry" />
        </mxCell>
        <mxCell id="0Jg27CvQV3jKYO-zsZn9-13" value="c2" style="rounded=1;whiteSpace=wrap;html=1;strokeColor=#3333FF;fillColor=#FFF4C3;" vertex="1" parent="9l8zbSIo2bWAHVmacl6w-1">
          <mxGeometry x="980" y="250" width="60" height="60" as="geometry" />
        </mxCell>
        <mxCell id="0Jg27CvQV3jKYO-zsZn9-14" value="Consumer Group" style="text;html=1;strokeColor=none;fillColor=none;align=center;verticalAlign=middle;whiteSpace=wrap;rounded=0;" vertex="1" parent="9l8zbSIo2bWAHVmacl6w-1">
          <mxGeometry x="927.5" y="210" width="60" height="20" as="geometry" />
        </mxCell>
        <mxCell id="0Jg27CvQV3jKYO-zsZn9-15" value="Producer" style="text;html=1;strokeColor=none;fillColor=none;align=center;verticalAlign=middle;whiteSpace=wrap;rounded=0;" vertex="1" parent="9l8zbSIo2bWAHVmacl6w-1">
          <mxGeometry x="230" y="230" width="40" height="20" as="geometry" />
        </mxCell>
        <mxCell id="0Jg27CvQV3jKYO-zsZn9-16" value="Kafka Client Library" style="rounded=0;whiteSpace=wrap;html=1;strokeColor=#3333FF;fillColor=#FFF4C3;" vertex="1" parent="9l8zbSIo2bWAHVmacl6w-1">
          <mxGeometry x="190" y="370" width="120" height="60" as="geometry" />
        </mxCell>
        <mxCell id="0Jg27CvQV3jKYO-zsZn9-17" value="Kafka Client Library" style="rounded=0;whiteSpace=wrap;html=1;strokeColor=#3333FF;fillColor=#FFF4C3;" vertex="1" parent="9l8zbSIo2bWAHVmacl6w-1">
          <mxGeometry x="880" y="370" width="120" height="60" as="geometry" />
        </mxCell>
      </root>
    </mxGraphModel>
  </diagram>
  <diagram id="efRHQI6LC3JrGKw9C5tp" name="Page-6">
    <mxGraphModel dx="1538" dy="724" grid="1" gridSize="10" guides="1" tooltips="1" connect="1" arrows="1" fold="1" page="1" pageScale="1" pageWidth="1169" pageHeight="827" math="0" shadow="0">
      <root>
        <mxCell id="dmTKYu6X3IvHIOkcmNdG-0" />
        <mxCell id="dmTKYu6X3IvHIOkcmNdG-1" parent="dmTKYu6X3IvHIOkcmNdG-0" />
        <mxCell id="dmTKYu6X3IvHIOkcmNdG-2" value="LMS" style="rounded=0;whiteSpace=wrap;html=1;strokeColor=#3333FF;fillColor=#FFF4C3;" parent="dmTKYu6X3IvHIOkcmNdG-1" vertex="1">
          <mxGeometry x="160" y="480" width="120" height="60" as="geometry" />
        </mxCell>
        <mxCell id="6aTWVI31JfhwUI4PQn9n-4" value="" style="edgeStyle=orthogonalEdgeStyle;rounded=0;orthogonalLoop=1;jettySize=auto;html=1;" edge="1" parent="dmTKYu6X3IvHIOkcmNdG-1" source="dmTKYu6X3IvHIOkcmNdG-4" target="dmTKYu6X3IvHIOkcmNdG-34">
          <mxGeometry relative="1" as="geometry" />
        </mxCell>
        <mxCell id="6aTWVI31JfhwUI4PQn9n-7" value="" style="edgeStyle=orthogonalEdgeStyle;rounded=0;orthogonalLoop=1;jettySize=auto;html=1;" edge="1" parent="dmTKYu6X3IvHIOkcmNdG-1" source="dmTKYu6X3IvHIOkcmNdG-4" target="dmTKYu6X3IvHIOkcmNdG-39">
          <mxGeometry relative="1" as="geometry" />
        </mxCell>
        <mxCell id="dmTKYu6X3IvHIOkcmNdG-4" value="OA" style="rounded=0;whiteSpace=wrap;html=1;strokeColor=#3333FF;fillColor=#FFF4C3;" parent="dmTKYu6X3IvHIOkcmNdG-1" vertex="1">
          <mxGeometry x="570" y="480" width="120" height="60" as="geometry" />
        </mxCell>
        <mxCell id="dmTKYu6X3IvHIOkcmNdG-29" value="" style="edgeStyle=orthogonalEdgeStyle;rounded=0;orthogonalLoop=1;jettySize=auto;html=1;" parent="dmTKYu6X3IvHIOkcmNdG-1" source="dmTKYu6X3IvHIOkcmNdG-5" edge="1">
          <mxGeometry relative="1" as="geometry">
            <mxPoint x="820" y="510" as="targetPoint" />
          </mxGeometry>
        </mxCell>
        <mxCell id="dmTKYu6X3IvHIOkcmNdG-5" value="IEP" style="rounded=0;whiteSpace=wrap;html=1;strokeColor=#3333FF;fillColor=#FFF4C3;" parent="dmTKYu6X3IvHIOkcmNdG-1" vertex="1">
          <mxGeometry x="930" y="480" width="120" height="60" as="geometry" />
        </mxCell>
        <mxCell id="dmTKYu6X3IvHIOkcmNdG-6" value="MM1" style="rounded=0;whiteSpace=wrap;html=1;strokeColor=#3333FF;fillColor=#FFF4C3;" parent="dmTKYu6X3IvHIOkcmNdG-1" vertex="1">
          <mxGeometry x="230" y="100" width="120" height="60" as="geometry" />
        </mxCell>
        <mxCell id="dmTKYu6X3IvHIOkcmNdG-7" value="MM2" style="rounded=0;whiteSpace=wrap;html=1;strokeColor=#3333FF;fillColor=#FFF4C3;" parent="dmTKYu6X3IvHIOkcmNdG-1" vertex="1">
          <mxGeometry x="230" y="190" width="120" height="60" as="geometry" />
        </mxCell>
        <mxCell id="dmTKYu6X3IvHIOkcmNdG-8" value="MM3" style="rounded=0;whiteSpace=wrap;html=1;strokeColor=#3333FF;fillColor=#FFF4C3;" parent="dmTKYu6X3IvHIOkcmNdG-1" vertex="1">
          <mxGeometry x="230" y="280" width="120" height="60" as="geometry" />
        </mxCell>
        <mxCell id="dmTKYu6X3IvHIOkcmNdG-9" value="HR1" style="rounded=0;whiteSpace=wrap;html=1;strokeColor=#3333FF;fillColor=#FFF4C3;" parent="dmTKYu6X3IvHIOkcmNdG-1" vertex="1">
          <mxGeometry x="470" y="130" width="120" height="60" as="geometry" />
        </mxCell>
        <mxCell id="dmTKYu6X3IvHIOkcmNdG-10" value="HR2" style="rounded=0;whiteSpace=wrap;html=1;strokeColor=#3333FF;fillColor=#FFF4C3;" parent="dmTKYu6X3IvHIOkcmNdG-1" vertex="1">
          <mxGeometry x="470" y="230" width="120" height="60" as="geometry" />
        </mxCell>
        <mxCell id="dmTKYu6X3IvHIOkcmNdG-11" value="FI1" style="rounded=0;whiteSpace=wrap;html=1;strokeColor=#3333FF;fillColor=#FFF4C3;" parent="dmTKYu6X3IvHIOkcmNdG-1" vertex="1">
          <mxGeometry x="740" y="100" width="120" height="60" as="geometry" />
        </mxCell>
        <mxCell id="dmTKYu6X3IvHIOkcmNdG-12" value="" style="rounded=0;whiteSpace=wrap;html=1;strokeColor=#3333FF;fillColor=#FFF4C3;" parent="dmTKYu6X3IvHIOkcmNdG-1" vertex="1">
          <mxGeometry x="740" y="250" width="120" height="60" as="geometry" />
        </mxCell>
        <mxCell id="dmTKYu6X3IvHIOkcmNdG-13" value="" style="rounded=0;whiteSpace=wrap;html=1;strokeColor=#3333FF;fillColor=#FFF4C3;" parent="dmTKYu6X3IvHIOkcmNdG-1" vertex="1">
          <mxGeometry x="740" y="170" width="120" height="60" as="geometry" />
        </mxCell>
        <mxCell id="dmTKYu6X3IvHIOkcmNdG-14" value="" style="endArrow=classic;html=1;entryX=0;entryY=0.5;entryDx=0;entryDy=0;" parent="dmTKYu6X3IvHIOkcmNdG-1" target="dmTKYu6X3IvHIOkcmNdG-9" edge="1">
          <mxGeometry width="50" height="50" relative="1" as="geometry">
            <mxPoint x="350" y="130" as="sourcePoint" />
            <mxPoint x="400" y="80" as="targetPoint" />
          </mxGeometry>
        </mxCell>
        <mxCell id="dmTKYu6X3IvHIOkcmNdG-15" value="" style="endArrow=classic;html=1;exitX=1;exitY=0.5;exitDx=0;exitDy=0;" parent="dmTKYu6X3IvHIOkcmNdG-1" source="dmTKYu6X3IvHIOkcmNdG-7" edge="1">
          <mxGeometry width="50" height="50" relative="1" as="geometry">
            <mxPoint x="360" y="140" as="sourcePoint" />
            <mxPoint x="470" y="170" as="targetPoint" />
          </mxGeometry>
        </mxCell>
        <mxCell id="dmTKYu6X3IvHIOkcmNdG-16" value="" style="endArrow=classic;html=1;entryX=0;entryY=0.383;entryDx=0;entryDy=0;exitX=1.017;exitY=0.617;exitDx=0;exitDy=0;exitPerimeter=0;entryPerimeter=0;" parent="dmTKYu6X3IvHIOkcmNdG-1" source="dmTKYu6X3IvHIOkcmNdG-6" target="dmTKYu6X3IvHIOkcmNdG-10" edge="1">
          <mxGeometry width="50" height="50" relative="1" as="geometry">
            <mxPoint x="360" y="140" as="sourcePoint" />
            <mxPoint x="480" y="170" as="targetPoint" />
          </mxGeometry>
        </mxCell>
        <mxCell id="dmTKYu6X3IvHIOkcmNdG-17" value="" style="endArrow=classic;html=1;exitX=1.025;exitY=0.383;exitDx=0;exitDy=0;exitPerimeter=0;entryX=0;entryY=0.75;entryDx=0;entryDy=0;" parent="dmTKYu6X3IvHIOkcmNdG-1" source="dmTKYu6X3IvHIOkcmNdG-8" target="dmTKYu6X3IvHIOkcmNdG-10" edge="1">
          <mxGeometry width="50" height="50" relative="1" as="geometry">
            <mxPoint x="360" y="230" as="sourcePoint" />
            <mxPoint x="480" y="180" as="targetPoint" />
          </mxGeometry>
        </mxCell>
        <mxCell id="dmTKYu6X3IvHIOkcmNdG-18" value="" style="endArrow=classic;html=1;entryX=0;entryY=0.5;entryDx=0;entryDy=0;" parent="dmTKYu6X3IvHIOkcmNdG-1" target="dmTKYu6X3IvHIOkcmNdG-11" edge="1">
          <mxGeometry width="50" height="50" relative="1" as="geometry">
            <mxPoint x="590" y="160" as="sourcePoint" />
            <mxPoint x="710" y="190" as="targetPoint" />
          </mxGeometry>
        </mxCell>
        <mxCell id="dmTKYu6X3IvHIOkcmNdG-19" value="" style="endArrow=classic;html=1;entryX=0;entryY=0.5;entryDx=0;entryDy=0;exitX=1;exitY=0.75;exitDx=0;exitDy=0;" parent="dmTKYu6X3IvHIOkcmNdG-1" source="dmTKYu6X3IvHIOkcmNdG-9" target="dmTKYu6X3IvHIOkcmNdG-13" edge="1">
          <mxGeometry width="50" height="50" relative="1" as="geometry">
            <mxPoint x="600" y="170" as="sourcePoint" />
            <mxPoint x="750" y="140" as="targetPoint" />
          </mxGeometry>
        </mxCell>
        <mxCell id="dmTKYu6X3IvHIOkcmNdG-20" value="" style="endArrow=classic;html=1;entryX=0;entryY=0.75;entryDx=0;entryDy=0;exitX=1;exitY=0.25;exitDx=0;exitDy=0;" parent="dmTKYu6X3IvHIOkcmNdG-1" source="dmTKYu6X3IvHIOkcmNdG-10" target="dmTKYu6X3IvHIOkcmNdG-13" edge="1">
          <mxGeometry width="50" height="50" relative="1" as="geometry">
            <mxPoint x="600" y="185" as="sourcePoint" />
            <mxPoint x="750" y="210" as="targetPoint" />
          </mxGeometry>
        </mxCell>
        <mxCell id="dmTKYu6X3IvHIOkcmNdG-21" value="" style="endArrow=classic;html=1;entryX=0;entryY=0.5;entryDx=0;entryDy=0;exitX=1;exitY=0.5;exitDx=0;exitDy=0;" parent="dmTKYu6X3IvHIOkcmNdG-1" source="dmTKYu6X3IvHIOkcmNdG-10" target="dmTKYu6X3IvHIOkcmNdG-12" edge="1">
          <mxGeometry width="50" height="50" relative="1" as="geometry">
            <mxPoint x="610" y="195" as="sourcePoint" />
            <mxPoint x="760" y="220" as="targetPoint" />
          </mxGeometry>
        </mxCell>
        <mxCell id="6aTWVI31JfhwUI4PQn9n-6" value="" style="edgeStyle=orthogonalEdgeStyle;rounded=0;orthogonalLoop=1;jettySize=auto;html=1;" edge="1" parent="dmTKYu6X3IvHIOkcmNdG-1" source="dmTKYu6X3IvHIOkcmNdG-23" target="dmTKYu6X3IvHIOkcmNdG-34">
          <mxGeometry relative="1" as="geometry">
            <Array as="points">
              <mxPoint x="490" y="430" />
              <mxPoint x="490" y="430" />
            </Array>
          </mxGeometry>
        </mxCell>
        <mxCell id="dmTKYu6X3IvHIOkcmNdG-23" value="IM" style="rounded=0;whiteSpace=wrap;html=1;strokeColor=#3333FF;fillColor=#FFF4C3;" parent="dmTKYu6X3IvHIOkcmNdG-1" vertex="1">
          <mxGeometry x="570" y="400" width="120" height="60" as="geometry" />
        </mxCell>
        <mxCell id="6aTWVI31JfhwUI4PQn9n-5" value="" style="edgeStyle=orthogonalEdgeStyle;rounded=0;orthogonalLoop=1;jettySize=auto;html=1;" edge="1" parent="dmTKYu6X3IvHIOkcmNdG-1" source="dmTKYu6X3IvHIOkcmNdG-24" target="dmTKYu6X3IvHIOkcmNdG-34">
          <mxGeometry relative="1" as="geometry">
            <Array as="points">
              <mxPoint x="490" y="590" />
              <mxPoint x="490" y="590" />
            </Array>
          </mxGeometry>
        </mxCell>
        <mxCell id="dmTKYu6X3IvHIOkcmNdG-24" value="JM" style="rounded=0;whiteSpace=wrap;html=1;strokeColor=#3333FF;fillColor=#FFF4C3;" parent="dmTKYu6X3IvHIOkcmNdG-1" vertex="1">
          <mxGeometry x="570" y="560" width="120" height="60" as="geometry" />
        </mxCell>
        <mxCell id="dmTKYu6X3IvHIOkcmNdG-25" value="" style="endArrow=classic;html=1;exitX=1;exitY=0.5;exitDx=0;exitDy=0;entryX=0;entryY=0.5;entryDx=0;entryDy=0;" parent="dmTKYu6X3IvHIOkcmNdG-1" source="dmTKYu6X3IvHIOkcmNdG-2" edge="1">
          <mxGeometry width="50" height="50" relative="1" as="geometry">
            <mxPoint x="290" y="520" as="sourcePoint" />
            <mxPoint x="390" y="590" as="targetPoint" />
          </mxGeometry>
        </mxCell>
        <mxCell id="dmTKYu6X3IvHIOkcmNdG-26" value="" style="endArrow=classic;html=1;entryX=0;entryY=0.75;entryDx=0;entryDy=0;" parent="dmTKYu6X3IvHIOkcmNdG-1" edge="1">
          <mxGeometry width="50" height="50" relative="1" as="geometry">
            <mxPoint x="280" y="510" as="sourcePoint" />
            <mxPoint x="390" y="445" as="targetPoint" />
          </mxGeometry>
        </mxCell>
        <mxCell id="dmTKYu6X3IvHIOkcmNdG-27" value="Cloud Service created" style="text;html=1;strokeColor=none;fillColor=none;align=center;verticalAlign=middle;whiteSpace=wrap;rounded=0;" parent="dmTKYu6X3IvHIOkcmNdG-1" vertex="1">
          <mxGeometry x="230" y="440" width="140" height="20" as="geometry" />
        </mxCell>
        <mxCell id="dmTKYu6X3IvHIOkcmNdG-31" value="OA Definition Used" style="text;html=1;strokeColor=none;fillColor=none;align=center;verticalAlign=middle;whiteSpace=wrap;rounded=0;" parent="dmTKYu6X3IvHIOkcmNdG-1" vertex="1">
          <mxGeometry x="830" y="480" width="80" height="20" as="geometry" />
        </mxCell>
        <mxCell id="dmTKYu6X3IvHIOkcmNdG-34" value="kafka" style="rounded=0;whiteSpace=wrap;html=1;strokeColor=#3333FF;fillColor=#FFF4C3;" parent="dmTKYu6X3IvHIOkcmNdG-1" vertex="1">
          <mxGeometry x="390" y="400" width="80" height="220" as="geometry" />
        </mxCell>
        <mxCell id="dmTKYu6X3IvHIOkcmNdG-36" value="" style="endArrow=classic;startArrow=classic;html=1;" parent="dmTKYu6X3IvHIOkcmNdG-1" target="dmTKYu6X3IvHIOkcmNdG-34" edge="1">
          <mxGeometry width="50" height="50" relative="1" as="geometry">
            <mxPoint x="280" y="510" as="sourcePoint" />
            <mxPoint x="660" y="330" as="targetPoint" />
          </mxGeometry>
        </mxCell>
        <mxCell id="dmTKYu6X3IvHIOkcmNdG-39" value="Kafka" style="rounded=0;whiteSpace=wrap;html=1;strokeColor=#3333FF;fillColor=#FFF4C3;" parent="dmTKYu6X3IvHIOkcmNdG-1" vertex="1">
          <mxGeometry x="740" y="400" width="80" height="220" as="geometry" />
        </mxCell>
      </root>
    </mxGraphModel>
  </diagram>
</mxfile>
